<?xml version="1.0" encoding="utf-8"?>
<!-- Generator: Adobe Illustrator 16.0.0, SVG Export Plug-In . SVG Version: 6.00 Build 0)  -->
<!DOCTYPE svg PUBLIC "-//W3C//DTD SVG 1.1//EN" "http://www.w3.org/Graphics/SVG/1.1/DTD/svg11.dtd">
<svg version="1.1" xmlns="http://www.w3.org/2000/svg" xmlns:xlink="http://www.w3.org/1999/xlink" x="0px" y="0px"
	 width="853.229px" height="864.784px" viewBox="0 0 853.229 864.784" enable-background="new 0 0 853.229 864.784"
	 xml:space="preserve">
<g id="Ebene_2" display="none">
	<rect x="4" y="-19" display="inline" fill="#7C7C7C" width="840" height="889"/>
</g>
<g id="Ebene_1">
	<path fill="none" stroke="#FFFFFF" stroke-width="44" stroke-miterlimit="10" d="M610.311,352.121
		c-11.377,0-22.406,1.479-32.916,4.243c-28.209-60.104-89.264-101.73-160.051-101.73c-60.877,0-114.561,30.784-146.344,77.632
		c-8.318-1.651-16.916-2.524-25.719-2.524c-72.559,0-131.377,58.82-131.377,131.378s58.818,131.377,131.377,131.377
		c24.689,0,47.785-6.816,67.518-18.662c29.277,21.52,65.424,34.24,104.545,34.24c38.791,0,74.656-12.509,103.801-33.698
		c23.166,22.16,54.576,35.774,89.166,35.774c71.252,0,129.014-57.762,129.014-129.015S681.562,352.121,610.311,352.121z"/>
</g>
</svg>
