<?xml version="1.0" encoding="utf-8"?>
<!-- Generator: Adobe Illustrator 16.0.0, SVG Export Plug-In . SVG Version: 6.00 Build 0)  -->
<!DOCTYPE svg PUBLIC "-//W3C//DTD SVG 1.1//EN" "http://www.w3.org/Graphics/SVG/1.1/DTD/svg11.dtd">
<svg version="1.1" xmlns="http://www.w3.org/2000/svg" xmlns:xlink="http://www.w3.org/1999/xlink" x="0px" y="0px"
	 width="853.229px" height="864.784px" viewBox="0 0 853.229 864.784" enable-background="new 0 0 853.229 864.784"
	 xml:space="preserve">
<g id="Ebene_2" display="none">
	<rect x="4.229" y="-20.216" display="inline" fill="#7C7C7C" width="840" height="889"/>
</g>
<g id="Ebene_1">
	<path fill="#FFFFFF" stroke="#FFFFFF" stroke-width="44" stroke-miterlimit="10" d="M480.18,462.844
		c-9.283,0-18.283,1.22-26.858,3.501c-23.018-49.585-72.835-83.927-130.595-83.927c-49.673,0-93.477,25.396-119.41,64.046
		c-6.787-1.363-13.803-2.083-20.985-2.083c-59.205,0-107.198,48.526-107.198,108.385c0,59.86,47.993,108.386,107.198,108.386
		c20.146,0,38.99-5.624,55.091-15.396c23.89,17.753,53.384,28.248,85.305,28.248c31.652,0,60.916-10.319,84.697-27.801
		c18.902,18.281,44.531,29.514,72.756,29.514c58.138,0,105.27-47.652,105.27-106.437
		C585.449,510.497,538.317,462.844,480.18,462.844z"/>
	<path fill="none" stroke="#FFFFFF" stroke-width="44" stroke-miterlimit="10" d="M650.372,308.955
		c-11.029,0-21.722,1.45-31.91,4.159c-27.347-58.912-86.536-99.714-155.161-99.714c-59.017,0-111.06,30.174-141.872,76.093
		c-8.064-1.619-16.399-2.475-24.933-2.475c-70.342,0-127.363,57.654-127.363,128.773c0,71.12,57.021,128.773,127.363,128.773
		c23.935,0,46.325-6.682,65.454-18.292c28.383,21.093,63.425,33.562,101.351,33.562c37.606,0,72.376-12.26,100.63-33.029
		c22.458,21.719,52.909,35.064,86.441,35.064c69.075,0,125.072-56.616,125.072-126.458
		C775.444,365.572,719.447,308.955,650.372,308.955z"/>
</g>
</svg>
