<?xml version="1.0" encoding="utf-8"?>
<!-- Generator: Adobe Illustrator 16.0.0, SVG Export Plug-In . SVG Version: 6.00 Build 0)  -->
<!DOCTYPE svg PUBLIC "-//W3C//DTD SVG 1.1//EN" "http://www.w3.org/Graphics/SVG/1.1/DTD/svg11.dtd">
<svg version="1.1" xmlns="http://www.w3.org/2000/svg" xmlns:xlink="http://www.w3.org/1999/xlink" x="0px" y="0px"
	 width="853.229px" height="864.784px" viewBox="0 0 853.229 864.784" enable-background="new 0 0 853.229 864.784"
	 xml:space="preserve">
<g id="Ebene_2" display="none">
	<rect x="5" y="-22" display="inline" fill="#7C7C7C" width="840" height="889"/>
</g>
<g id="Ebene_1">
	<path fill="none" stroke="#FFFFFF" stroke-width="44" stroke-miterlimit="10" d="M644.02,235.135
		c-11.376,0-22.406,1.479-32.915,4.243c-28.209-60.104-89.265-101.729-160.052-101.729c-60.876,0-114.561,30.783-146.343,77.631
		c-8.318-1.651-16.916-2.524-25.72-2.524c-72.558,0-131.377,58.82-131.377,131.378S206.433,475.51,278.99,475.51
		c24.69,0,47.786-6.816,67.519-18.662c29.277,21.52,65.423,34.24,104.544,34.24c38.791,0,74.656-12.509,103.802-33.698
		c23.166,22.16,54.575,35.774,89.165,35.774c71.253,0,129.015-57.762,129.015-129.015S715.272,235.135,644.02,235.135z"/>
	
		<line fill="none" stroke="#FFFFFF" stroke-width="27" stroke-miterlimit="10" stroke-dasharray="100" x1="665.829" y1="563.683" x2="533.815" y2="770.703"/>
	
		<line fill="none" stroke="#FFFFFF" stroke-width="27" stroke-miterlimit="10" stroke-dasharray="100" x1="451.829" y1="563.683" x2="319.815" y2="770.703"/>
	
		<line fill="none" stroke="#FFFFFF" stroke-width="27" stroke-miterlimit="10" stroke-dasharray="100" x1="243.829" y1="563.683" x2="111.815" y2="770.703"/>
</g>
</svg>
