<?xml version="1.0" encoding="utf-8"?>
<!-- Generator: Adobe Illustrator 16.0.0, SVG Export Plug-In . SVG Version: 6.00 Build 0)  -->
<!DOCTYPE svg PUBLIC "-//W3C//DTD SVG 1.1//EN" "http://www.w3.org/Graphics/SVG/1.1/DTD/svg11.dtd">
<svg version="1.1" xmlns="http://www.w3.org/2000/svg" xmlns:xlink="http://www.w3.org/1999/xlink" x="0px" y="0px"
	 width="853.229px" height="864.784px" viewBox="0 0 853.229 864.784" enable-background="new 0 0 853.229 864.784"
	 xml:space="preserve">
<g id="Ebene_2" display="none">
	<rect x="5.229" y="-19" display="inline" fill="#7C7C7C" width="840" height="889"/>
</g>
<g id="Ebene_1">
	<path fill="#FFFFFF" stroke="#FFFFFF" stroke-width="44" stroke-miterlimit="10" d="M481.951,324.06
		c-9.283,0-18.283,1.22-26.858,3.501c-23.018-49.585-72.835-83.927-130.595-83.927c-49.673,0-93.477,25.396-119.41,64.046
		c-6.787-1.363-13.803-2.083-20.985-2.083c-59.205,0-107.198,48.526-107.198,108.385c0,59.86,47.993,108.386,107.198,108.386
		c20.146,0,38.99-5.624,55.091-15.396c23.89,17.753,53.384,28.248,85.305,28.248c31.652,0,60.916-10.319,84.697-27.801
		c18.902,18.281,44.531,29.514,72.756,29.514c58.138,0,105.27-47.652,105.27-106.437C587.221,371.713,540.089,324.06,481.951,324.06
		z"/>
	<path fill="none" stroke="#FFFFFF" stroke-width="44" stroke-miterlimit="10" d="M652.144,170.171
		c-11.029,0-21.722,1.45-31.91,4.159c-27.347-58.912-86.536-99.714-155.161-99.714c-59.017,0-111.06,30.174-141.872,76.093
		c-8.064-1.619-16.399-2.475-24.933-2.475c-70.342,0-127.363,57.654-127.363,128.773c0,71.12,57.021,128.773,127.363,128.773
		c23.935,0,46.325-6.682,65.454-18.292c28.383,21.093,63.425,33.562,101.351,33.562c37.606,0,72.376-12.26,100.63-33.029
		c22.458,21.719,52.909,35.064,86.441,35.064c69.075,0,125.072-56.616,125.072-126.458
		C777.216,226.788,721.219,170.171,652.144,170.171z"/>
	<g>
		<path fill="#FFFFFF" d="M332.099,479.98c3.222,3.538,6.326,7.143,9.383,10.773c1.545,1.807,3.048,3.637,4.549,5.467
			c1.495,1.835,3.029,3.646,4.491,5.5c2.937,3.699,5.933,7.364,8.794,11.105c2.884,3.729,5.798,7.44,8.623,11.202
			c11.364,15.011,22.285,30.272,32.892,45.71l7.896,11.613c2.587,3.896,5.216,7.768,7.769,11.684
			c2.566,3.907,5.139,7.812,7.659,11.744c2.545,3.92,5.062,7.855,7.554,11.806c5.009,7.885,9.935,15.817,14.798,23.784
			c2.452,3.973,4.844,7.979,7.251,11.977c2.419,3.99,4.782,8.012,7.155,12.029l18.542,31.391l-37.385,0.866
			c-4.577,0.106-9.153,0.165-13.73,0.214c-4.576,0.064-9.153,0.111-13.729,0.116c-4.577,0.013-9.153,0.056-13.729,0.021
			l-13.73-0.076l-13.73-0.176l-13.729-0.28l-13.729-0.389l-13.73-0.497l17.494-31.375l5.679,10.166l5.61,10.207
			c1.879,3.396,3.692,6.835,5.54,10.251c1.853,3.414,3.648,6.862,5.467,10.296c1.826,3.431,3.6,6.893,5.391,10.344
			c1.801,3.445,3.545,6.926,5.312,10.393c1.774,3.461,3.484,6.963,5.229,10.442l5.145,10.495l5.044,10.559
			c1.665,3.529,3.324,7.062,4.95,10.615c1.647,3.54,3.241,7.113,4.854,10.676c1.587,3.577,3.183,7.149,4.717,10.76
			c1.535,3.609,3.133,7.18,4.615,10.822c1.484,3.641,3.038,7.239,4.466,10.915c1.462,3.655,2.906,7.32,4.293,11.021
			c1.403,3.691,2.756,7.413,4.036,11.181c-2.797-2.83-5.521-5.705-8.194-8.611c-2.69-2.896-5.321-5.827-7.938-8.77
			c-2.648-2.922-5.172-5.92-7.764-8.877c-2.595-2.954-5.073-5.98-7.615-8.969c-2.542-2.986-5.024-6.012-7.514-9.031
			c-2.464-3.035-4.947-6.059-7.377-9.115c-2.45-3.045-4.868-6.109-7.279-9.177l-7.187-9.233l-7.086-9.297
			c-2.331-3.117-4.697-6.213-7-9.348c-2.31-3.132-4.642-6.248-6.919-9.4c-2.285-3.146-4.588-6.281-6.839-9.447
			c-2.259-3.163-4.539-6.312-6.764-9.496c-2.229-3.181-4.492-6.34-6.689-9.54l-6.62-9.584l-6.552-9.626l-20.422-30.004l37.916-1.371
			l13.73-0.497l13.729-0.389l13.729-0.28l13.73-0.176l13.73-0.076c4.576-0.035,9.152,0.008,13.729,0.021
			c4.576,0.005,9.153,0.052,13.729,0.116c4.577,0.049,9.153,0.107,13.73,0.214l-18.843,32.257
			c-2.209-4.109-4.428-8.213-6.591-12.348c-2.175-4.129-4.365-8.248-6.496-12.402c-4.3-8.284-8.539-16.604-12.693-24.971
			c-2.091-4.176-4.155-8.365-6.193-12.572c-2.062-4.191-4.071-8.413-6.087-12.631c-2.029-4.211-3.982-8.465-5.978-12.694
			l-5.851-12.765c-7.722-17.065-15.129-34.308-22.093-51.801c-1.758-4.363-3.426-8.777-5.123-13.175
			c-1.722-4.384-3.308-8.845-4.953-13.271c-0.828-2.21-1.585-4.461-2.382-6.689c-0.79-2.231-1.577-4.465-2.323-6.722
			C334.938,489.09,333.459,484.568,332.099,479.98z"/>
	</g>
</g>
</svg>
