<?xml version="1.0" encoding="utf-8"?>
<!-- Generator: Adobe Illustrator 16.0.0, SVG Export Plug-In . SVG Version: 6.00 Build 0)  -->
<!DOCTYPE svg PUBLIC "-//W3C//DTD SVG 1.1//EN" "http://www.w3.org/Graphics/SVG/1.1/DTD/svg11.dtd">
<svg version="1.1" xmlns="http://www.w3.org/2000/svg" xmlns:xlink="http://www.w3.org/1999/xlink" x="0px" y="0px"
	 width="853.229px" height="864.784px" viewBox="0 0 853.229 864.784" enable-background="new 0 0 853.229 864.784"
	 xml:space="preserve">
<g id="Ebene_2" display="none">
	<rect x="7" y="-21" display="inline" fill="#7C7C7C" width="840" height="889"/>
</g>
<g id="Ebene_1">
	<path fill="none" stroke="#FFFFFF" stroke-width="44" stroke-miterlimit="10" d="M593.311,222.121
		c-11.377,0-22.406,1.479-32.916,4.243c-28.209-60.104-89.264-101.73-160.051-101.73c-60.877,0-114.561,30.784-146.344,77.632
		c-8.318-1.651-16.916-2.524-25.719-2.524c-72.559,0-131.377,58.82-131.377,131.378s58.818,131.377,131.377,131.377
		c24.689,0,47.785-6.816,67.518-18.662c29.277,21.52,65.424,34.24,104.545,34.24c38.791,0,74.656-12.509,103.801-33.698
		c23.166,22.16,54.576,35.774,89.166,35.774c71.252,0,129.014-57.762,129.014-129.015S664.562,222.121,593.311,222.121z"/>
	
		<line fill="none" stroke="#FFFFFF" stroke-width="19" stroke-miterlimit="10" x1="179.066" y1="549.633" x2="299.758" y2="670.323"/>
	<line fill="none" stroke="#FFFFFF" stroke-width="19" stroke-miterlimit="10" x1="154" y1="609.5" x2="325" y2="609.5"/>
	
		<line fill="none" stroke="#FFFFFF" stroke-width="19" stroke-miterlimit="10" x1="179.027" y1="669.876" x2="299.711" y2="549.192"/>
	<line fill="none" stroke="#FFFFFF" stroke-width="19" stroke-miterlimit="10" x1="238.5" y1="695" x2="238.5" y2="524"/>
	
		<line fill="none" stroke="#FFFFFF" stroke-width="19" stroke-miterlimit="10" x1="349.066" y1="658.633" x2="469.758" y2="779.323"/>
	<line fill="none" stroke="#FFFFFF" stroke-width="19" stroke-miterlimit="10" x1="324" y1="718.5" x2="495" y2="718.5"/>
	
		<line fill="none" stroke="#FFFFFF" stroke-width="19" stroke-miterlimit="10" x1="349.027" y1="778.876" x2="469.711" y2="658.192"/>
	<line fill="none" stroke="#FFFFFF" stroke-width="19" stroke-miterlimit="10" x1="408.5" y1="804" x2="408.5" y2="633"/>
	
		<line fill="none" stroke="#FFFFFF" stroke-width="19" stroke-miterlimit="10" x1="520.066" y1="549.633" x2="640.758" y2="670.323"/>
	<line fill="none" stroke="#FFFFFF" stroke-width="19" stroke-miterlimit="10" x1="495" y1="609.5" x2="666" y2="609.5"/>
	
		<line fill="none" stroke="#FFFFFF" stroke-width="19" stroke-miterlimit="10" x1="520.027" y1="669.876" x2="640.711" y2="549.192"/>
	<line fill="none" stroke="#FFFFFF" stroke-width="19" stroke-miterlimit="10" x1="579.5" y1="695" x2="579.5" y2="524"/>
</g>
</svg>
