<?xml version="1.0" encoding="utf-8"?>
<!-- Generator: Adobe Illustrator 16.0.0, SVG Export Plug-In . SVG Version: 6.00 Build 0)  -->
<!DOCTYPE svg PUBLIC "-//W3C//DTD SVG 1.1//EN" "http://www.w3.org/Graphics/SVG/1.1/DTD/svg11.dtd">
<svg version="1.1" xmlns="http://www.w3.org/2000/svg" xmlns:xlink="http://www.w3.org/1999/xlink" x="0px" y="0px"
	 width="853.229px" height="864.784px" viewBox="0 0 853.229 864.784" enable-background="new 0 0 853.229 864.784"
	 xml:space="preserve">
<g id="Ebene_2" display="none">
	<rect x="6.229" y="-15.216" display="inline" fill="#7C7C7C" width="840" height="889"/>
</g>
<g id="Ebene_1">
	<g>
		<path fill="#FFFFFF" d="M411.248,386.938c0-9.556,6.457-16.271,15.496-16.271s14.98,6.715,15.236,16.271
			c0,9.039-5.939,16.013-15.494,16.013C417.447,402.95,411.248,395.977,411.248,386.938z M411.248,478.104
			c0-9.556,6.457-16.271,15.496-16.271s14.98,6.715,15.236,16.271c0,9.039-5.939,16.013-15.494,16.013
			C417.447,494.117,411.248,487.144,411.248,478.104z"/>
	</g>
	<g>
		<path fill="#FFFFFF" d="M177.762,429.57c0,89.083-33.053,138.259-91.098,138.259C35.473,567.83,0.807,519.862,0,433.198
			c0-87.873,37.891-136.243,91.099-136.243C146.321,296.955,177.762,346.131,177.762,429.57z M35.473,433.602
			c0,68.121,20.96,106.818,53.207,106.818c36.277,0,53.61-42.324,53.61-109.236c0-64.494-16.526-106.818-53.207-106.818
			C58.045,324.365,35.473,362.254,35.473,433.602z"/>
		<path fill="#FFFFFF" d="M384.543,429.57c0,89.083-33.053,138.259-91.098,138.259c-51.191,0-85.857-47.968-86.664-134.632
			c0-87.873,37.891-136.243,91.099-136.243C353.103,296.955,384.543,346.131,384.543,429.57z M242.254,433.602
			c0,68.121,20.96,106.818,53.207,106.818c36.277,0,53.61-42.324,53.61-109.236c0-64.494-16.526-106.818-53.207-106.818
			C264.826,324.365,242.254,362.254,242.254,433.602z"/>
	</g>
	<g>
		<path fill="#FFFFFF" d="M646.447,429.57c0,89.083-33.053,138.259-91.098,138.259c-51.191,0-85.857-47.968-86.664-134.632
			c0-87.873,37.891-136.243,91.099-136.243C615.007,296.955,646.447,346.131,646.447,429.57z M504.158,433.602
			c0,68.121,20.96,106.818,53.207,106.818c36.277,0,53.61-42.324,53.61-109.236c0-64.494-16.526-106.818-53.207-106.818
			C526.73,324.365,504.158,362.254,504.158,433.602z"/>
		<path fill="#FFFFFF" d="M853.229,429.57c0,89.083-33.053,138.259-91.098,138.259c-51.191,0-85.857-47.968-86.664-134.632
			c0-87.873,37.891-136.243,91.099-136.243C821.788,296.955,853.229,346.131,853.229,429.57z M710.939,433.602
			c0,68.121,20.96,106.818,53.207,106.818c36.277,0,53.61-42.324,53.61-109.236c0-64.494-16.526-106.818-53.207-106.818
			C733.512,324.365,710.939,362.254,710.939,433.602z"/>
	</g>
</g>
</svg>
