<?xml version="1.0" encoding="utf-8"?>
<!-- Generator: Adobe Illustrator 16.0.0, SVG Export Plug-In . SVG Version: 6.00 Build 0)  -->
<!DOCTYPE svg PUBLIC "-//W3C//DTD SVG 1.1//EN" "http://www.w3.org/Graphics/SVG/1.1/DTD/svg11.dtd">
<svg version="1.1" xmlns="http://www.w3.org/2000/svg" xmlns:xlink="http://www.w3.org/1999/xlink" x="0px" y="0px"
	 width="841.89px" height="833.833px" viewBox="0 0 841.89 833.833" enable-background="new 0 0 841.89 833.833"
	 xml:space="preserve">
<g id="Ebene_2" display="none">
	<rect x="0.89" y="-54.167" display="inline" fill="#7C7C7C" width="840" height="889"/>
</g>
<g id="Ebene_1">
	<path fill="#FFFFFF" d="M601.104,205.378c10.509-2.765,21.539-3.244,32.915-3.244c37.977,0,72.118,25.411,95.728,51.525
		c26.148-29.672,39.07-70.518,31.705-112.502c-12.867-73.342-82.754-122.368-156.097-109.5
		c-51.204,8.983-90.548,45.762-105.261,92.103C544.747,139.588,581.147,162.856,601.104,205.378z"/>
	<path fill="none" stroke="#FFFFFF" stroke-width="44" stroke-miterlimit="10" d="M594.02,271.135
		c-11.376,0-22.406,1.479-32.915,4.243c-28.209-60.104-89.265-101.73-160.052-101.73c-60.876,0-114.561,30.784-146.343,77.631
		c-8.318-1.651-16.916-2.524-25.72-2.524c-72.558,0-131.377,58.82-131.377,131.378S156.433,511.51,228.99,511.51
		c24.69,0,47.786-6.816,67.519-18.662c29.277,21.52,65.423,34.24,104.544,34.24c38.791,0,74.656-12.509,103.802-33.698
		c23.166,22.16,54.575,35.774,89.165,35.774c71.253,0,129.015-57.762,129.015-129.015S665.272,271.135,594.02,271.135z"/>
	
		<line fill="none" stroke="#FFFFFF" stroke-width="27" stroke-miterlimit="10" stroke-dasharray="100" x1="615.829" y1="599.683" x2="483.815" y2="806.703"/>
	
		<line fill="none" stroke="#FFFFFF" stroke-width="27" stroke-miterlimit="10" stroke-dasharray="100" x1="401.829" y1="599.683" x2="269.815" y2="806.703"/>
	
		<line fill="none" stroke="#FFFFFF" stroke-width="27" stroke-miterlimit="10" stroke-dasharray="100" x1="193.829" y1="599.683" x2="61.815" y2="806.703"/>
</g>
</svg>
